<svg id="Twitter" xmlns="http://www.w3.org/2000/svg" viewBox="0 0 131.9 50"><style>.st0{fill:#1da1f2}.st1{fill:#8c8c8c}</style><title>twitter_be</title><path class="st0" d="M36.8 0C23 0 11.9 11 11.8 24.7L0 27.2l12.7 4.6C15.7 42.3 25.3 50 36.8 50c13.8 0 25-11.2 25-25S50.6 0 36.8 0zM49 18.7v.8c0 8.3-6.3 18-18 18-3.4 0-6.8-1-9.7-2.8.5.1 1 .1 1.5.1 2.8 0 5.6-.9 7.8-2.7-2.7 0-5.1-1.8-5.9-4.4.4.1.8.1 1.2.1.5 0 1-.1 1.5-.2-3-.6-5.2-3.2-5.2-6.2v-.1c.9.5 2 .7 3 .8-1.7-1.2-2.8-3.2-2.7-5.2 0-1.1.3-2.2.9-3.2 3.2 3.9 7.9 6.3 13 6.6-.1-.5-.1-1-.1-1.5 0-3.5 2.8-6.3 6.3-6.4 1.8 0 3.5.7 4.7 2 1.4-.3 2.8-.8 4-1.5-.5 1.5-1.5 2.7-2.8 3.5 1.3-.2 2.5-.5 3.6-1-.9 1.3-1.9 2.4-3.1 3.3z"/><path class="st1" d="M106.9 0c-13.7 0-24.8 11-25 24.7l-11.8 2.6 12.7 4.6c3 10.5 12.6 18.2 24.1 18.2 13.8 0 25-11.2 25-25S120.7 0 106.9 0zm12.2 18.7v.8c0 8.3-6.3 18-18 18-3.4 0-6.8-1-9.7-2.8.5.1 1 .1 1.5.1 2.8 0 5.6-.9 7.8-2.7-2.7 0-5.1-1.8-5.9-4.4.4.1.8.1 1.2.1.5 0 1-.1 1.5-.2-3-.6-5.2-3.2-5.2-6.2v-.1c.9.5 2 .7 3 .8-1.7-1.2-2.8-3.2-2.7-5.2 0-1.1.3-2.2.9-3.2 3.2 3.9 7.9 6.3 13 6.6-.1-.5-.1-1-.1-1.5 0-3.5 2.8-6.3 6.3-6.4 1.8 0 3.5.7 4.7 2 1.4-.3 2.8-.8 4-1.5-.5 1.5-1.5 2.7-2.8 3.5 1.3-.2 2.5-.5 3.6-1-.8 1.3-1.9 2.4-3.1 3.3z"/></svg>
